<svg xmlns="http://www.w3.org/2000/svg" viewBox="0 0 226 64" width="226" height="64" role="img" aria-label="L’Atelier">
  
  <path d="M20 16V48H48Z" fill="none" stroke="#fff" stroke-width="4" stroke-linejoin="round" stroke-linecap="round"/>
  <path d="M26 44V36L34 44Z" fill="none" stroke="#fff" stroke-width="3" stroke-linejoin="round" stroke-linecap="round"/>
  <svg x="86" y="18.3" width="128" height="27.3" viewBox="60.8 -740.9 3534.6 754.8" fill="#fff" preserveAspectRatio="xMinYMid meet"><g transform="scale(1 -1)"><path transform="translate(0 0)" d="M60.75598619133234 0V660H218.61237114667892V0ZM89.46710611879826 0V133.23394978791475H483.6566799581051V0Z"/><path transform="translate(361 0)" d="M12.022518582642078 450.51098565012217Q30.02251858264208 498.1220119893551 37.52251858264208 538.7498219795525Q45.02251858264208 579.3776319697499 46.52251858264208 621.1889411062002Q48.02251858264208 663.0002502426505 48.02251858264208 712.3562018498778H191.68993801623583Q191.68993801623583 642.3557807058096 183.26769714429975 592.883368935436Q174.84545627236366 543.4109571650624 160.96765035018325 509.26648457720876Q147.08984442800283 475.1220119893551 132.200931802392 450.51098565012217Z"/><path transform="translate(497 0)" d="M11.28895127773285 0 234.76666869968176 660H457.8906155079603L681.0461276620626 0H509.22294786572456L352.5899013951421 534.8439303934574H340.06744384765625L182.50104573369026 0ZM140.57825249433517 122.94427015632391V230.98907335102558H573.8570441380143V122.94427015632391Z"/><path transform="translate(1177 0)" d="M260.24523857980967 -12.53338623046875Q167.70049845427275 -12.53338623046875 123.96710001677275 35.816770426929Q80.23370157927275 84.16692708432674 80.23370157927275 188.81188083440065V403.9328633621335H10.055605739355087L11.989014349877834 519.700547285378H49.845551900565624Q91.13402506709099 522.2781894281507 110.12835523858666 538.8444288447499Q129.12268541008234 555.4106682613492 133.68933783471584 593.3988586291671L142.967405192554 645.5890001058578H232.87884657084942V527.4445814341307H359.48987494409084V399.4216946065426H232.87884657084942V198.134029135108Q232.87884657084942 162.57860446721315 250.1065711118281 146.4786298982799Q267.33429565280676 130.37865532934666 299.7455457895994 130.37865532934666Q317.1345194503665 130.37865532934666 333.64007331058383 134.43419698253274Q350.14562717080116 138.48973863571882 362.134405516088 145.82299465686083V2.299928791821003Q330.73431396484375 -7.36676025390625 305.1842325851321 -9.9500732421875Q279.6341512054205 -12.53338623046875 260.24523857980967 -12.53338623046875Z"/><path transform="translate(1557 0)" d="M304.46734212338924 -13.944457329809666Q235.8563096821308 -13.944457329809666 184.6062191464007 4.883243814110756Q133.35612861067057 23.710944958031178 98.84487237036228 58.86088087037206Q64.333616130054 94.01081678271294 46.90570441260934 143.29975483939052Q29.47779269516468 192.5886928960681 29.47779269516468 253.52227444201708Q29.47779269516468 314.4557440876961 46.57233344018459 367.02800937369466Q63.666874185204506 419.60027465969324 97.02255316823721 458.7058061398566Q130.3782321512699 497.8113376200199 179.97277391329408 519.6057420521975Q229.56731567531824 541.400146484375 293.9228481724858 541.400146484375Q357.96734415739775 541.400146484375 406.1396460644901 520.0890489369631Q454.3119479715824 498.77795138955116 485.21758626401424 458.3834788016975Q516.1232245564461 417.9890062138438 529.023336455226 361.5444552972913Q541.9234483540058 305.09990438073874 535.0901923328638 234.52190009504557L131.44513481855392 230.51085340976715V314.67772759497166L435.24587132036686 318.3554612919688L390.4893663227558 275.50009562820196Q397.02275458723307 324.666731774807 385.63381042703986 356.5888556614518Q374.24486626684666 388.51097954809666 350.52819349616766 403.9553178586066Q326.81152072548866 419.3996561691165 295.1895697712898 419.3996561691165Q258.94530775398016 419.3996561691165 233.167540486902 400.1386094838381Q207.38977321982384 380.87756279855967 194.12860751524568 344.9165344238281Q180.86744181066751 308.9555060490966 180.86744181066751 258.04443291574717Q180.86744181066751 175.83343709260225 214.28418070450425 138.22803073376417Q247.700919598341 100.62262437492609 304.23394368588924 100.62262437492609Q330.64500461518764 100.62262437492609 348.3227342441678 107.72817823663354Q366.00046387314796 114.83373209834099 377.25043335556984 126.5281222909689Q388.5004028379917 138.2225124835968 394.3393032550812 153.28906928747892Q400.17820367217064 168.35562609136105 402.5671834349632 184.26652425527573L542.2010966017842 161.35485297441483Q537.7564561665058 125.55481431633234 522.5007537864149 93.92713148146868Q507.2450514063239 62.299448646605015 478.93942226842046 38.077370535582304Q450.633793130517 13.855292424559593 407.73382975161076 -0.04458245262503624Q364.8338663727045 -13.944457329809666 304.46734212338924 -13.944457329809666Z"/><path transform="translate(2115 0)" d="M54.73370971530676 0V712.3562018498778H210.64557833969593V0Z"/><path transform="translate(2368 0)" d="M54.75592719018459 0.0V527.4445814341307H212.57898695021868V0.0ZM133.6674865707755 591.0895290821791Q88.42531090715998 591.0895290821791 64.36841785033283 610.1533472986989Q40.31152479350567 629.2171655152189 40.31152479350567 665.4196433989625Q40.31152479350567 702.5522637037855 64.37911966710652 721.7211995332649Q88.44671454070739 740.8901353627443 133.65864671252564 740.8901353627443Q179.85344697503558 740.8901353627443 203.91623120366688 721.5622836649418Q227.97901543229818 702.2344319671392 227.97901543229818 665.5074833479442Q227.97901543229818 629.7528322829228 203.90992733743042 610.4211806825509Q179.84083924256265 591.0895290821791 133.6674865707755 591.0895290821791Z"/><path transform="translate(2623 0)" d="M304.46734212338924 -13.944457329809666Q235.8563096821308 -13.944457329809666 184.6062191464007 4.883243814110756Q133.35612861067057 23.710944958031178 98.84487237036228 58.86088087037206Q64.333616130054 94.01081678271294 46.90570441260934 143.29975483939052Q29.47779269516468 192.5886928960681 29.47779269516468 253.52227444201708Q29.47779269516468 314.4557440876961 46.57233344018459 367.02800937369466Q63.666874185204506 419.60027465969324 97.02255316823721 458.7058061398566Q130.3782321512699 497.8113376200199 179.97277391329408 519.6057420521975Q229.56731567531824 541.400146484375 293.9228481724858 541.400146484375Q357.96734415739775 541.400146484375 406.1396460644901 520.0890489369631Q454.3119479715824 498.77795138955116 485.21758626401424 458.3834788016975Q516.1232245564461 417.9890062138438 529.023336455226 361.5444552972913Q541.9234483540058 305.09990438073874 535.0901923328638 234.52190009504557L131.44513481855392 230.51085340976715V314.67772759497166L435.24587132036686 318.3554612919688L390.4893663227558 275.50009562820196Q397.02275458723307 324.666731774807 385.63381042703986 356.5888556614518Q374.24486626684666 388.51097954809666 350.52819349616766 403.9553178586066Q326.81152072548866 419.3996561691165 295.1895697712898 419.3996561691165Q258.94530775398016 419.3996561691165 233.167540486902 400.1386094838381Q207.38977321982384 380.87756279855967 194.12860751524568 344.9165344238281Q180.86744181066751 308.9555060490966 180.86744181066751 258.04443291574717Q180.86744181066751 175.83343709260225 214.28418070450425 138.22803073376417Q247.700919598341 100.62262437492609 304.23394368588924 100.62262437492609Q330.64500461518764 100.62262437492609 348.3227342441678 107.72817823663354Q366.00046387314796 114.83373209834099 377.25043335556984 126.5281222909689Q388.5004028379917 138.2225124835968 394.3393032550812 153.28906928747892Q400.17820367217064 168.35562609136105 402.5671834349632 184.26652425527573L542.2010966017842 161.35485297441483Q537.7564561665058 125.55481431633234 522.5007537864149 93.92713148146868Q507.2450514063239 62.299448646605015 478.93942226842046 38.077370535582304Q450.633793130517 13.855292424559593 407.73382975161076 -0.04458245262503624Q364.8338663727045 -13.944457329809666 304.46734212338924 -13.944457329809666Z"/><path transform="translate(3181 0)" d="M54.73370971530676 0V258.8546332269907L54.71149427443743 527.4445814341307H186.16749470680952L187.54548881947994 338.2565009146929H204.10133056342602Q210.8568874746561 411.9340372681618 229.69581332430243 455.9282942004502Q248.53473917394876 499.9225511327386 281.6238410100341 519.6891211606562Q314.7129428461194 539.4556911885738 362.2134148553014 539.4556911885738Q373.5798760354519 539.4556911885738 386.4630008302629 537.4502258300781Q399.3461256250739 535.4447604715824 414.40155232697725 530.40050252527L407.8126844614744 360.2997253462672Q389.9572109654546 369.16630656272173 370.82387763261795 372.949574790895Q351.6905442997813 376.73284301906824 336.13505859673023 376.73284301906824Q299.31273939460516 376.73284301906824 272.8737514913082 360.199702963233Q246.43476358801126 343.66656290739775 231.44581230729818 310.9001861549914Q216.4568610265851 278.13380940258503 212.87903374433517 229.41185233742V0Z"/></g></svg>
</svg>
